<svg xmlns="http://www.w3.org/2000/svg" viewBox="0 0 111.82 27.72"><defs><style>.cls-1{fill:#f16624;}.cls-2{fill:#f26424;}.cls-3{fill:#57575b;}.cls-4{fill:#fff;}</style></defs><title>Solution Partner Global Elite</title><g id="Layer_2" data-name="Layer 2"><g id="Layer_1-2" data-name="Layer 1"><g id="Solution_Partner_Global_Elite" data-name="Solution Partner Global Elite"><polygon class="cls-1" points="106.91 9.57 111.82 0.05 15.98 0.05 24.95 5.23 25.95 5.8 25.95 6.96 25.95 18.73 111.82 18.73 106.91 9.57"/><g id="Logo"><polygon class="cls-2" points="12.02 0 0 6.94 0 20.79 3.43 22.77 3.41 8.92 11.99 3.96 20.58 8.92 20.58 22.77 24.01 20.79 24.01 6.92 12.02 0"/><polygon class="cls-2" points="13.72 22.77 12 23.77 10.28 22.78 10.28 8.92 6.85 10.9 6.86 24.75 12 27.72 17.15 24.75 17.15 10.9 13.72 8.92 13.72 22.77"/></g><path class="cls-3" d="M28.57,25.62h1.09c.05.45.24.82,1,.82.5,0,.83-.27.83-.67s-.21-.54-.95-.65c-1.29-.17-1.82-.56-1.82-1.53s.72-1.5,1.84-1.5,1.79.5,1.89,1.51H31.38a.72.72,0,0,0-.83-.67c-.5,0-.76.23-.76.57s.16.53.94.64c1.22.15,1.85.48,1.85,1.53a1.72,1.72,0,0,1-1.93,1.61C29.27,27.28,28.64,26.63,28.57,25.62Z"/><path class="cls-3" d="M33.52,24.71v-.06a2.49,2.49,0,0,1,2.6-2.56,2.45,2.45,0,0,1,2.59,2.53v.06a2.6,2.6,0,0,1-5.19,0Zm4,0v-.06c0-1-.52-1.65-1.4-1.65s-1.41.64-1.41,1.66v.05a1.48,1.48,0,0,0,1.42,1.67C37,26.37,37.52,25.71,37.52,24.7Z"/><path class="cls-3" d="M40,22.16H41.1V26.3h2v.9H40Z"/><path class="cls-3" d="M44.14,25.23V22.16h1.15v3c0,.84.24,1.21.93,1.21s1-.33,1-1.25v-3h1.15v3a1.9,1.9,0,0,1-2.13,2.09A1.86,1.86,0,0,1,44.14,25.23Z"/><path class="cls-3" d="M50.8,23.05H49.43v-.89H53.3v.89H51.94V27.2H50.8Z"/><path class="cls-3" d="M54.46,22.16h1.15v5H54.46Z"/><path class="cls-3" d="M56.89,24.71v-.06a2.49,2.49,0,0,1,2.59-2.56,2.44,2.44,0,0,1,2.59,2.53v.06a2.59,2.59,0,0,1-5.18,0Zm4,0v-.06c0-1-.52-1.65-1.4-1.65s-1.4.64-1.4,1.66v.05c0,1,.59,1.67,1.41,1.67S60.88,25.71,60.88,24.7Z"/><path class="cls-3" d="M63.32,22.16h1.32l1.92,3.32V22.16h1v5H66.43l-2.1-3.59V27.2h-1Z"/><path class="cls-3" d="M71.06,22.16h1.75c1.22,0,1.92.54,1.92,1.6v0c0,1.07-.74,1.57-1.89,1.57H72.2V27.2H71.06Zm1.72,2.41c.55,0,.85-.27.85-.77v0c0-.53-.31-.75-.85-.75H72.2v1.55Z"/><path class="cls-3" d="M76.81,22.16h1.48l1.64,5H78.74l-.35-1.12H76.57l-.35,1.12H75.15Zm0,3.11h1.34l-.67-2.18Z"/><path class="cls-3" d="M81,22.16h1.8c1.19,0,2,.48,2,1.53v0a1.3,1.3,0,0,1-1,1.33l1.33,2.15H83.87l-1.2-1.95h-.5V27.2H81Zm1.77,2.32c.57,0,.86-.24.86-.73v0c0-.51-.31-.69-.86-.69h-.64v1.45Z"/><path class="cls-3" d="M87.07,23.05H85.71v-.89h3.87v.89H88.22V27.2H87.07Z"/><path class="cls-3" d="M90.71,22.16H92L94,25.48V22.16h1v5H93.83l-2.1-3.59V27.2h-1Z"/><path class="cls-3" d="M96.48,22.16h3.28v.89H97.61v1.17h1.72v.83H97.61v1.26h2.26v.89H96.48Z"/><path class="cls-3" d="M101.09,22.16h1.8c1.2,0,2,.48,2,1.53v0a1.29,1.29,0,0,1-1,1.33l1.34,2.15h-1.22l-1.2-1.95h-.5V27.2h-1.13Zm1.78,2.32c.57,0,.86-.24.86-.73v0c0-.51-.31-.69-.86-.69h-.65v1.45Z"/><path class="cls-4" d="M31.81,9.62V9.54a3.51,3.51,0,0,1,3.64-3.65c1.59,0,3,.73,3.18,2.5H37a1.38,1.38,0,0,0-1.55-1.22c-1.24,0-2,.93-2,2.39v.08c0,1.37.59,2.36,2,2.36a1.51,1.51,0,0,0,1.72-1.5H35.6V9.32h3.21v.76a3,3,0,0,1-3.36,3.17A3.39,3.39,0,0,1,31.81,9.62Z"/><path class="cls-4" d="M40.12,6h1.62v5.87h2.91v1.27H40.12Z"/><path class="cls-4" d="M45.24,9.62V9.54A3.54,3.54,0,0,1,48.92,5.9,3.48,3.48,0,0,1,52.6,9.5v.08a3.68,3.68,0,0,1-7.36,0Zm5.67,0V9.52c0-1.39-.74-2.34-2-2.34s-2,.91-2,2.35v.08a2.08,2.08,0,0,0,2,2.35C50.15,12,50.91,11,50.91,9.6Z"/><path class="cls-4" d="M53.91,6h2.81c1.56,0,2.37.64,2.37,1.86v0a1.47,1.47,0,0,1-1.16,1.53,1.57,1.57,0,0,1,1.43,1.67v0c0,1.31-.86,2-2.51,2H53.91Zm2.55,2.94c.78,0,1.09-.28,1.09-.92V8c0-.6-.34-.87-1.1-.87h-1V8.94ZM56.6,12c.8,0,1.16-.36,1.16-1v0c0-.65-.36-1-1.24-1h-1v2Z"/><path class="cls-4" d="M62.33,6h2.11l2.32,7.14H65.07l-.49-1.59H62l-.49,1.59H60Zm0,4.41h1.89l-.94-3.09Z"/><path class="cls-4" d="M67.88,6H69.5v5.87h2.91v1.27H67.88Z"/><path class="cls-4" d="M76,6h4.66V7.26h-3V8.93H80v1.18H77.59v1.77H80.8v1.26H76Z"/><path class="cls-4" d="M82.07,6h1.62v5.87H86.6v1.27H82.07Z"/><path class="cls-4" d="M87.85,6h1.63v7.14H87.85Z"/><path class="cls-4" d="M92.6,7.26H90.67V6h5.49V7.26H94.23v5.88H92.6Z"/><path class="cls-4" d="M97.31,6H102V7.26h-3V8.93h2.44v1.18H98.92v1.77h3.21v1.26H97.31Z"/></g></g></g></svg>