<?xml version="1.0" encoding="utf-8"?>
<!-- Generator: Adobe Illustrator 19.0.0, SVG Export Plug-In . SVG Version: 6.00 Build 0)  -->
<svg version="1.1" id="Layer_1" xmlns="http://www.w3.org/2000/svg" xmlns:xlink="http://www.w3.org/1999/xlink" x="0px" y="0px"
	 viewBox="0 0 150.1 170.7" style="enable-background:new 0 0 150.1 170.7;" xml:space="preserve">
<style type="text/css">
	.st0{fill:#95BF47;}
	.st1{fill:#5F8F3E;}
	.st2{fill:#FFFFFF;}
</style>
<path class="st0" d="M131.6,33.2c-0.1-0.9-0.9-1.3-1.5-1.3s-13.7-1-13.7-1s-9.1-9.1-10.2-10c-1-1-2.9-0.7-3.7-0.5
	c-0.1,0-2,0.6-5.1,1.6C94.3,13.1,89,5,79.5,5h-0.9c-2.6-3.4-6-5-8.8-5c-22,0-32.6,27.5-35.9,41.5c-8.6,2.7-14.7,4.5-15.4,4.8
	c-4.8,1.5-4.9,1.6-5.5,6.1C12.5,55.8,0,152.5,0,152.5l97.3,18.2l52.8-11.4C150.2,159.1,131.7,34.1,131.6,33.2z M92,23.4
	c-2.4,0.7-5.3,1.6-8.2,2.6v-1.8c0-5.4-0.7-9.8-2-13.3C86.8,11.5,89.9,17,92,23.4L92,23.4z M75.7,12c1.3,3.4,2.2,8.2,2.2,14.8v1
	c-5.4,1.7-11.1,3.4-17,5.3C64.2,20.5,70.5,14.3,75.7,12L75.7,12z M69.3,5.8c1,0,2,0.4,2.8,1C65,10.1,57.5,18.4,54.4,35.2
	c-4.7,1.5-9.2,2.8-13.5,4.2C44.5,26.6,53.5,5.8,69.3,5.8z"/>
<path class="st1" d="M130.1,31.7c-0.6,0-13.7-1-13.7-1s-9.1-9.1-10.2-10c-0.4-0.4-0.9-0.6-1.3-0.6l-7.3,150.6l52.8-11.4
	c0,0-18.5-125.2-18.6-126.1C131.4,32.3,130.7,31.9,130.1,31.7z"/>
<path class="st2" d="M79.5,60.9l-6.4,19.3c0,0-5.8-3.1-12.7-3.1c-10.3,0-10.8,6.5-10.8,8.1c0,8.8,23,12.2,23,32.9
	c0,16.3-10.3,26.8-24.2,26.8c-16.8,0-25.2-10.4-25.2-10.4l4.5-14.8c0,0,8.8,7.6,16.2,7.6c4.9,0,6.9-3.8,6.9-6.6
	c0-11.5-18.8-12-18.8-31c0-15.9,11.4-31.3,34.5-31.3C75.1,58.3,79.5,60.9,79.5,60.9z"/>
</svg>
