<?xml version="1.0" encoding="utf-8"?>
<!-- Generator: Adobe Illustrator 19.0.0, SVG Export Plug-In . SVG Version: 6.00 Build 0)  -->
<svg version="1.1" id="Layer_1" xmlns="http://www.w3.org/2000/svg" xmlns:xlink="http://www.w3.org/1999/xlink" x="0px" y="0px"
	 viewBox="0 0 539.6 90.1" style="enable-background:new 0 0 539.6 90.1;" xml:space="preserve">
<style type="text/css">
	.st0{fill:#010101;}
	.st1{fill:#96BF47;}
	.st2{fill:#5F8F3E;}
	.st3{fill:#FFFFFF;}
</style>
<g>
	<g>
		<path class="st0" d="M321.7,87.8l7.4-39.9c0.9-4.9,1.6-9.1,2.1-13.1h3.2l-1.2,8h0.2c3.3-5,8-8.5,12.9-8.5c7,0,9.7,5.8,9.7,11.9
			c0,12.5-8.6,26.9-20.4,26.9c-3.6,0-6-1.3-7.4-1.3H328l-2.9,16H321.7z M328.7,67.6c1.7,1.3,4.2,2.1,7.2,2.1
			c9.8,0,16.6-13.9,16.6-23.4c0-4.4-1.7-9.3-7.2-9.3c-5.3,0-12.1,6.7-14.2,17.9L328.7,67.6z"/>
		<path class="st0" d="M381.1,72.8c-0.1-3,0.4-6,0.9-10h-0.2c-4.2,8-9,10.3-13.8,10.3c-5.6,0-9-4.9-9-11.5c0-12.7,9-27.5,23.4-27.5
			c2.6,0,5.6,0.3,7.5,1L386,55.5c-1.3,7-1.8,13.3-1.6,17.3H381.1z M386,37.4c-0.8-0.3-2.2-0.5-4.5-0.5c-10.7,0-19,11.9-19.1,23.6
			c-0.1,4.9,1.3,9.2,6.3,9.2c6,0,12.8-9,14.6-18.6L386,37.4z"/>
		<path class="st0" d="M392.3,72.8l4.7-25.4c0.9-4.7,1.5-8.6,1.8-12.6h3c-0.2,3-0.5,5-1,9h0.2c2.2-5,5.9-9.3,10.6-9.3
			c0.5,0,1-0.2,1.4-0.2l-0.7,3.4c-0.3-0.1-0.7-0.1-1.2-0.1c-4.9,0-10.3,7.8-11.8,15.9l-3.6,19.3H392.3z"/>
		<path class="st0" d="M428.1,26.6l-1.6,8.1h8.7l-0.6,3h-8.7l-4.1,22c-0.5,2.5-0.8,4.4-0.8,6.4c0,2.2,1,3.5,3.3,3.5
			c1.2,0,2-0.1,2.7-0.3l0.2,2.7c-1,0.3-2.3,0.5-3.6,0.5c-4.4,0-6.1-2.9-6.1-6c0-2,0.2-3.9,0.8-6.7l4.2-22h-5.3l0.5-3h5.4l1.2-6.7
			L428.1,26.6z"/>
		<path class="st0" d="M434.8,72.8l4.9-26.6c0.8-4.4,1.3-8.4,1.6-11.4h3.2l-1.1,8h0.2c3.2-5,7.9-8.6,13-8.6c3.6,0,8.3,2.2,8.3,9.2
			c0,1.9-0.3,4.1-0.7,6.1l-4.2,23.2h-3.3l4.3-23.3c0.3-1.7,0.5-3.7,0.5-5.6c0-3.9-1.5-6.8-6.1-6.8c-4.9,0-12,6.6-13.6,15.6
			l-3.6,20.1H434.8z"/>
		<path class="st0" d="M491.6,69.7c-1.9,1.3-5.5,2.8-10.1,2.8c-8.7,0-11.7-6.8-11.7-13.9c0-10.7,7.5-24.6,18.1-24.6
			c6.1,0,8.7,3.9,8.7,8.1c0,9.4-10.8,12-22.9,12c-0.4,1.7-0.5,6.6,0.3,9.3c1.3,4.2,4.2,6.3,8.1,6.3c4.1,0,6.9-1.5,8.6-2.5
			L491.6,69.7z M493.2,42.2c0-3.4-2.4-5.3-5.9-5.3c-5.7,0-10.8,6.2-13.1,14.2C483.9,51.2,493.2,49.6,493.2,42.2L493.2,42.2z"/>
		<path class="st0" d="M498.8,72.8l4.7-25.4c0.9-4.7,1.5-8.6,1.8-12.6h3c-0.2,3-0.5,5-1,9h0.2c2.2-5,5.9-9.3,10.6-9.3
			c0.5,0,1-0.2,1.4-0.2l-0.7,3.4c-0.3-0.1-0.7-0.1-1.2-0.1c-4.9,0-10.3,7.8-11.8,15.9l-3.6,19.3H498.8z"/>
		<path class="st0" d="M518.3,67.5c1.3,1,3.8,2.1,6.5,2.1c4.9,0,8.2-3.5,8.2-7.7c0-3.7-1.5-5.9-5-8.2c-3.7-2.4-5.7-5.7-5.7-9.2
			c0-5.8,4.7-10.5,11.3-10.5c2.5,0,5,0.8,6.1,1.6l-1.2,2.9c-1.2-0.7-3.1-1.5-5.3-1.5c-4.5,0-7.5,3.2-7.5,7c0,3.5,2,5.4,5,7.5
			c3.6,2.4,5.7,5.8,5.7,9.6c0,7.5-5.5,11.6-11.9,11.6c-3.3,0-6.3-1.2-7.5-2.2L518.3,67.5z"/>
	</g>
	<g>
		<g>
			<path class="st1" d="M28.9,29.2c-0.1,0-0.1,0-0.2,0c-0.8-0.1-1.6-0.9-1.6-1.7c0-0.8-0.5-19.9,10.7-24.2c2.8-1.1,5.4-0.8,7.6,0.7
				C48,5.9,50,9.7,51.2,15.2c0.8,3.9,1,7.2,1,7.4c0,0.8-0.6,1.4-1.5,1.3c-0.8-0.1-1.6-0.9-1.6-1.7c-0.1-3.5-1.3-13-5.2-15.7
				c-1.2-0.9-2.7-1-4.6-0.2c-9.6,3.7-9.1,21.6-9.1,21.8C30.2,28.7,29.6,29.2,28.9,29.2z"/>
			<path class="st1" d="M52.8,10.5L9.5,23.9c0,0-1.9,0.5-2.3,1C6.8,25.5,6.7,27,6.7,27L0,78.6l50.2,9.4L54,10.4
				C53.5,10.3,52.9,10.4,52.8,10.5z"/>
			<path class="st2" d="M67.7,17.1c0,0-0.1-0.4-0.3-0.5c-0.2-0.1-0.5-0.2-0.5-0.2l-7.1-0.5l-5.2-5.2c-0.2-0.2-0.4-0.2-0.7-0.3
				L50.2,88l27.2-5.9L67.7,17.1z"/>
			<path class="st3" d="M34.9,53.5c-0.8-1-1.7-1.9-2.6-2.7c-0.9-0.8-1.9-1.5-2.9-2.1c-0.7-0.4-1.3-0.8-1.8-1.2
				c-0.5-0.4-0.9-0.8-1.2-1.2c-0.3-0.4-0.6-0.8-0.7-1.2c-0.2-0.4-0.2-0.8-0.2-1.2c0-0.6,0.2-1.1,0.4-1.6c0.2-0.5,0.5-0.9,0.9-1.2
				c0.4-0.3,0.9-0.6,1.4-0.8c0.6-0.2,1.2-0.3,1.9-0.4c0.8,0,1.5,0,2.2,0.1c0.7,0.1,1.4,0.2,2,0.4c0.6,0.2,1.2,0.3,1.8,0.5
				c0.5,0.2,1,0.4,1.4,0.6l3.3-10c-0.5-0.3-1.1-0.5-1.8-0.7c-0.7-0.2-1.5-0.4-2.3-0.5c-0.8-0.1-1.8-0.2-2.7-0.2c-1,0-2,0.1-3,0.2
				c-2.3,0.3-4.3,0.9-6.1,1.8c-1.8,0.9-3.3,2-4.5,3.4c-1.2,1.3-2.2,2.9-2.9,4.6c-0.7,1.7-1.1,3.6-1.2,5.6c-0.1,1.2,0.1,2.3,0.3,3.4
				c0.3,1,0.7,2,1.2,2.9c0.5,0.9,1.2,1.7,1.9,2.5c0.7,0.8,1.6,1.5,2.4,2.1c0.7,0.5,1.3,1,1.8,1.5c0.5,0.5,0.9,0.9,1.2,1.4
				c0.3,0.5,0.5,0.9,0.7,1.4c0.1,0.5,0.2,1,0.2,1.5c0,0.5-0.1,1-0.3,1.4c-0.2,0.4-0.5,0.8-0.9,1.1c-0.4,0.3-0.8,0.5-1.3,0.6
				c-0.5,0.1-1.1,0.1-1.8,0c-0.8-0.1-1.5-0.3-2.2-0.6c-0.7-0.3-1.4-0.6-2.1-1c-0.7-0.4-1.3-0.8-1.8-1.1c-0.5-0.4-1-0.7-1.4-1.1
				l-2.3,7.6c0.4,0.5,0.9,1,1.4,1.4c0.6,0.5,1.2,0.9,2,1.4c0.7,0.4,1.6,0.8,2.4,1.2c0.9,0.4,1.8,0.7,2.8,0.9c0,0,0,0,0,0
				c0,0,0,0,0,0c0,0,0,0,0,0c0,0,0,0,0,0c2.1,0.5,4.1,0.6,6,0.3c1.9-0.3,3.7-0.9,5.2-1.9c1.6-1.1,2.9-2.5,3.8-4.4
				c1-1.9,1.5-4.2,1.6-6.8c0.1-1.6-0.2-3.1-0.6-4.4C36.3,55.8,35.7,54.6,34.9,53.5z"/>
			<path class="st1" d="M18.4,26.6c-0.1,0-0.1,0-0.2,0c-0.8-0.1-1.4-0.9-1.3-1.7C17,24.1,19.8,5,31.8,0.7c3-1.1,5.5-0.8,7.5,0.7
				c2.3,1.9,3.6,5.6,3.8,11.1c0.1,3.9-0.3,7.2-0.3,7.4c-0.1,0.8-0.9,1.4-1.7,1.3c-0.8-0.1-1.4-0.9-1.3-1.7c0.5-3.5,1-13-2.4-15.7
				c-1.1-0.9-2.6-1-4.5-0.2c-10.2,3.7-12.9,21.6-13,21.8C19.7,26.1,19.1,26.6,18.4,26.6z"/>
		</g>
		<path d="M109,50.1c-2.7-1.5-4.1-2.7-4.1-4.4c0-2.2,1.9-3.6,5-3.6c2.8,0,5.2,0.8,6.7,1.5L119,36c-1.7-1-4.9-1.8-9-1.8
			c-9.4,0-15.8,5.3-15.8,12.9c0,4.3,3,7.5,7,9.8c3.3,1.9,4.4,3.2,4.4,5.1c0,2-1.6,3.6-4.6,3.6c-3.3,0.1-6.8-1.3-8.7-2.3L89.6,71
			c2,1.4,6.1,2.6,10.5,2.6c9.6,0.1,16.5-4.7,16.5-13.2C116.7,55.8,113.2,52.5,109,50.1z"/>
		<path d="M147.2,34.2c-4.7,0-8.4,2.2-11.3,5.7l-0.2-0.1l4.1-21.4h-10.7l-10.4,54.6h10.7l3.6-18.7c1.4-7,5-11.4,8.4-11.4
			c2.4,0,3.3,1.6,3.3,3.9c0,1.5-0.2,3.3-0.5,4.7l-4,21.4H151l4.2-22.1c0.5-2.3,0.8-5.1,0.8-7C156,37.8,152.8,34.2,147.2,34.2z"/>
		<path d="M180.2,34.2c-12.9,0-21.4,11.6-21.4,24.5c0,8.3,5.1,14.9,14.7,14.9c12.6,0,21.1-11.3,21.1-24.5
			C194.6,41.5,190.1,34.2,180.2,34.2z M174.9,65.5c-3.6,0-5.2-3.1-5.2-7c0-6.1,3.2-16.1,9-16.1c3.8,0,5,3.3,5,6.4
			C183.7,55.4,180.5,65.5,174.9,65.5z"/>
		<path d="M222,34.2c-4.3,0-8.4,2.3-11.3,6.3h-0.2l0.6-5.7h-9.4c-0.5,3.9-1.3,9.8-2.2,14.2l-7.4,39.1h10.7l2.9-15.8h0.2
			c1.2,0.8,3.6,1.4,6.3,1.4c12.5,0,20.8-12.9,20.8-25.9C233,40.6,229.8,34.2,222,34.2z M211.7,65.6c-1.9,0-3.3-0.6-4.4-1.5l1.8-10
			c1.2-6.7,4.7-11.1,8.4-11.1c3.3,0,4.3,3,4.3,5.9C221.8,55.8,217.7,65.6,211.7,65.6z"/>
		<path d="M248.2,18.8c-3.4,0-6.1,2.7-6.1,6.2c0,3.2,2,5.3,5,5.3h0.2c3.3,0,6.2-2.2,6.3-6.2C253.6,21.1,251.5,18.8,248.2,18.8z"/>
		<polygon points="233.3,72.9 244,72.9 251.2,35 240.5,35 		"/>
		<path d="M278.4,34.9H271l0.4-1.8c0.6-3.6,2.8-6.9,6.3-6.9c1.4,0,2.5,0.2,3.4,0.5l2.1-8.4c-1.2-0.5-3.2-0.9-5.8-0.9
			c-3.8,0-7.6,1.1-10.5,3.6c-3.6,3.1-5.3,7.6-6.2,12.1l-0.3,1.8h-5l-1.5,8.1h5l-5.7,29.9h10.7l5.7-29.9h7.4L278.4,34.9z"/>
		<path d="M304.1,35l-6.5,17c-1.5,4.1-2.3,6.5-3.2,9.1h-0.2c-0.2-2.5-0.5-5.2-0.9-9l-1.7-17h-11.2l6.4,34.8c0.2,0.8,0.1,1.2-0.2,1.8
			c-1.2,2.4-3.3,4.7-5.8,6.4c-2,1.5-4.3,2.4-6,3l2.9,9.1c2.2-0.5,6.7-2.2,10.5-5.8c4.9-4.6,9.4-11.6,14-21.2l13.1-28H304.1z"/>
	</g>
</g>
</svg>
