<?xml version="1.0" encoding="utf-8"?>
<!-- Generator: Adobe Illustrator 19.0.0, SVG Export Plug-In . SVG Version: 6.00 Build 0)  -->
<svg version="1.1" id="Layer_1" xmlns="http://www.w3.org/2000/svg" xmlns:xlink="http://www.w3.org/1999/xlink" x="0px" y="0px"
	 viewBox="63.5 245 650 139.5" style="enable-background:new 63.5 245 650 139.5;" xml:space="preserve" fill="#ffffff">
<g id="XMLID_2_">
	<path id="XMLID_3_" d="M155.9,360.3c3.3,3.3,7.1,6.8,11.4,10.3l-19.1,13.9c-11.2-7.3-20.1-16.6-26.8-27.8h-3.1
		c-11.1,0-20.8-2.3-29.1-6.8c-8.3-4.5-14.6-11-19-19.5s-6.7-18.4-6.7-29.7s2.2-21.2,6.7-29.5c4.5-8.4,10.8-14.8,19-19.4
		c8.2-4.5,17.9-6.8,29-6.8s20.8,2.3,29,6.8s14.5,11,18.9,19.4s6.6,18.2,6.6,29.5s-2.2,21.2-6.6,29.6c-4.4,8.4-10.6,14.9-18.7,19.4
		C149.8,353.4,152.6,357,155.9,360.3z M99.2,326.2c4.6,5.8,11,8.6,19.1,8.6c8.2,0,14.6-2.9,19.2-8.7c4.6-5.8,7-14.3,7-25.4
		c0-11-2.3-19.4-7-25.2c-4.6-5.8-11-8.6-19.2-8.6s-14.5,2.9-19.1,8.6s-6.9,14.1-6.9,25.2C92.4,311.9,94.7,320.4,99.2,326.2z"/>
	<path id="XMLID_6_" d="M194.1,344.7c-8.2-8-12.2-19.8-12.2-35.3v-63h28v64.1c0,7.9,1.8,13.9,5.3,18.1s8.5,6.3,15.1,6.3
		c6.4,0,11.4-2.1,14.8-6.3c3.5-4.2,5.2-10.2,5.2-18v-64.1h28.3v63c0,15.3-4.2,27-12.5,35.1s-20.3,12.2-35.9,12.2
		C214.3,356.7,202.3,352.7,194.1,344.7z"/>
	<path id="XMLID_8_" d="M369.8,355.3l-9.6-22.5h-48.3l-9.6,22.5h-28.8l50.9-108.9H347l51.1,108.9H369.8z M321.1,311.2h29.7
		L336,276.8L321.1,311.2z"/>
	<path id="XMLID_11_" d="M499,355.3h-30.4L454.5,319c-1.6-4.1-5.5-6.1-11.5-6.1h-10.4v42.4h-28.3V246.4H455
		c13.2,0,23.1,2.8,29.7,8.5c6.6,5.7,9.9,13.7,9.9,24.3c0,7.3-2,13.7-5.9,19c-3.9,5.4-9.5,9.2-16.6,11.4c3.1,0.6,5.8,2,8.3,4.3
		c2.4,2.2,4.4,5.3,5.8,9L499,355.3z M463.7,288.7c2.8-1.9,4.1-4.8,4.1-8.8c0-4.2-1.4-7.2-4.1-9c-2.7-1.8-7.2-2.8-13.4-2.8h-18.1
		v23.4h18.1C456.5,291.5,460.9,290.6,463.7,288.7z"/>
	<path id="XMLID_14_" d="M599.7,355.3h-30.4L555.2,319c-1.6-4.1-5.5-6.1-11.5-6.1h-10.4v42.4H505V246.4h50.6
		c13.2,0,23.1,2.8,29.7,8.5c6.6,5.7,9.9,13.7,9.9,24.3c0,7.3-2,13.7-5.9,19c-3.9,5.4-9.5,9.2-16.6,11.4c3.1,0.6,5.8,2,8.3,4.3
		c2.4,2.2,4.4,5.3,5.8,9L599.7,355.3z M564.4,288.7c2.8-1.9,4.1-4.8,4.1-8.8c0-4.2-1.4-7.2-4.1-9c-2.7-1.8-7.2-2.8-13.4-2.8h-18
		v23.4h18.1C557.2,291.5,561.6,290.6,564.4,288.7z"/>
	<path id="XMLID_17_" d="M713.5,246.4l-46.1,67.3v41.6h-28.9v-41.8l-45.7-67.2h32.4l27.5,43.5l28-43.5h32.8V246.4z"/>
</g>
</svg>
