<svg version="1" xmlns="http://www.w3.org/2000/svg" width="933.333" height="933.333" viewBox="0 0 700.000000 700.000000"><path d="M340.7 1.7c-.1 0-6.3.4-13.7.8-7.4.3-14.4.8-15.5 1.1-1.1.2-4.1.6-6.8.9-4.1.4-7.8.9-18.9 2.9-33.1 5.9-67.5 19.4-95.1 37.2-58.4 37.7-97.9 101.7-109.2 176.9-.9 6-1.8 12-2 13.2-2 12.6-2.7 59-1.2 77.8.7 8.9 3.8 30.8 5.2 37.5.3 1.4.7 3.6 1 5 6.2 32.3 21.9 70.2 40.3 97 18.8 27.5 41.4 49.3 69.2 66.7 24.7 15.4 57.6 28.3 86.5 33.9 1.1.2 4.3.8 7 1.3 4.9 1 7.1 1.3 17 2.7 8.7 1.1 9.8 1.2 22 2 6.6.4 18.2.7 25.8.7h13.8l5.6 9.1c24.9 40.4 59.1 78.2 98.6 108.9 12 9.4 28.1 20.7 29.5 20.7.5 0 4.8-2.8 9.6-6.2 4.7-3.5 12.6-9.2 17.6-12.8 4.9-3.6 10-7.3 11.2-8.2 1.3-.9 14.2-10.3 28.8-20.9 14.6-10.5 26.9-19.6 27.4-20 .5-.5-.9-2.4-3.4-4.6-49.2-42.5-69.5-63.4-86.8-89.6-2.9-4.3-5.2-8.3-5.2-8.8s-.4-.9-1-.9c-2.2 0-.8-1.8 3.3-4 25.3-14.2 53.3-39.9 71.4-65.5C598 420.7 612.8 380 620.4 326c3.1-21.6 2.8-75.1-.5-95.8-.5-3.4-1.1-7.4-1.3-9-1.5-10.4-6.4-32.9-7.7-35.5-.6-.9-.7-1.7-.5-1.7.3 0-1.7-6.6-4.5-14.8-10.5-30.3-26.1-58.2-45.9-81.7-13.2-15.7-41-38.9-57.5-48.1-1.1-.6-3.8-2.1-6-3.3-20.7-11.7-52.8-23.7-71.5-26.7-1.9-.3-3.8-.8-4.1-1-.3-.2-2.1-.6-4-.9-1.9-.3-5.9-1-8.9-1.5-10.9-1.9-18.3-2.6-34.1-3.6-10.6-.6-32.8-1.1-33.2-.7zm32.4 110.6c39.6 7.2 66.2 25.7 85.1 59.2 5.7 10 13.5 29.7 15.3 38.5.2.8 1 4.6 1.9 8.5 2.2 10.4 4.4 25.9 5.2 37.5.5 6.8.5 42.9 0 49-.5 5.7-1.7 17-2.1 19.2-.2.9-.7 3.8-1.1 6.5-2.4 16.8-8.6 37.1-15.9 52.3-4.9 10.1-15.7 25.2-24 33.5-17.4 17.4-39 28.1-64.5 32-9.3 1.4-39.2 1.5-45 .1-1.4-.3-5.1-1.1-8.3-1.6-15.9-2.9-37.4-13.5-49.1-24-1.7-1.6-4-3.7-5.1-4.7-3.2-2.8-11.9-13.3-16-19.2-3.3-4.8-8.2-14-12.8-24.1-4.5-9.7-10.6-33.2-13.1-50.2-2.9-19.2-2.9-74.7-.1-88.8.3-1.4.8-4.5 1.1-7 2.4-17.2 8.9-38.2 16.8-53.5 18.5-36 50.7-58.9 88.6-63.1 3-.4 5.7-.8 5.9-1 .5-.5 34.1.4 37.2.9z"/></svg>